<svg width="1735" height="422" viewBox="0 0 1735 422" fill="none" xmlns="http://www.w3.org/2000/svg">
<g clip-path="url(#clip0_320_5)">
<mask id="mask0_320_5" style="mask-type:luminance" maskUnits="userSpaceOnUse" x="0" y="0" width="1735" height="422">
<path d="M1735 0H0V422H1735V0Z" fill="white"/>
</mask>
<g mask="url(#mask0_320_5)">
<path d="M1735 0H0V422H1735V0Z" fill="#272727"/>
<path d="M75.3573 95.29H11.4717V302.887H75.3573V95.29Z" fill="white"/>
<path d="M383.314 112.306H319.428V319.903H383.314V112.306Z" fill="white"/>
<path d="M98.8945 23.8226V88.4839L324.176 88.4839V23.8226L98.8945 23.8226Z" fill="white"/>
<path d="M46.6813 40.0069L-43.7114 114.151L-6.19942 161.001L84.1933 86.8567L46.6813 40.0069Z" fill="#272727"/>
<path d="M405.59 248.435L292.529 341.173L330.041 388.023L443.102 295.285L405.59 248.435Z" fill="#272727"/>
<path d="M370.184 57.6086L270.901 -23.8228L233.391 23.0281L332.673 104.459L370.184 57.6086Z" fill="#272727"/>
<path d="M237.259 169.49H159.061V248.637H237.259V169.49Z" fill="white"/>
<path d="M319.428 327.425L320.136 392.082L384.017 391.366L383.31 326.708L319.428 327.425Z" fill="white"/>
<path d="M11.472 24.5385L12.1797 89.1958L76.0614 88.4795L75.3537 23.8222L11.472 24.5385Z" fill="white"/>
<path d="M383.314 23.8223H319.428V88.4836H383.314V23.8223Z" fill="white"/>
<path d="M71.9951 326.709V391.371H297.276V326.709H71.9951Z" fill="white"/>
<path d="M169.358 397.63L76.3105 321.312L38.7998 368.163L131.847 444.481L169.358 397.63Z" fill="#272727"/>
<path d="M11.472 327.425L12.1797 392.082L76.0614 391.366L75.3537 326.708L11.472 327.425Z" fill="white"/>
<path d="M620.178 202.111V275.94C617.313 279.438 612.888 283.233 606.903 287.328C600.918 291.337 593.208 294.792 583.77 297.692C574.328 300.592 562.91 302.043 549.51 302.043C537.628 302.043 526.797 300.081 517.02 296.157C507.245 292.148 498.816 286.304 491.738 278.627C484.741 270.95 479.347 261.567 475.554 250.477C471.762 239.303 469.865 226.55 469.865 212.219V200.576C469.865 186.245 471.678 173.492 475.302 162.318C479.011 151.143 484.277 141.717 491.106 134.04C497.931 126.363 506.065 120.519 515.503 116.51C524.941 112.501 535.435 110.497 546.982 110.497C562.994 110.497 576.141 113.141 586.423 118.43C596.705 123.633 604.543 130.884 609.936 140.182C615.417 149.394 618.786 159.972 620.05 171.914H583.262C582.338 165.602 580.566 160.1 577.953 155.408C575.34 150.717 571.591 147.049 566.702 144.404C561.898 141.76 555.66 140.438 547.994 140.438C541.673 140.438 536.024 141.76 531.051 144.404C526.165 146.963 522.036 150.759 518.664 155.792C515.291 160.825 512.722 167.052 510.95 174.473C509.182 181.895 508.298 190.51 508.298 200.32V212.219C508.298 221.944 509.226 230.559 511.078 238.066C512.931 245.487 515.671 251.757 519.296 256.875C523.005 261.908 527.554 265.704 532.947 268.263C538.344 270.822 544.622 272.102 551.783 272.102C557.769 272.102 562.742 271.59 566.702 270.566C570.747 269.542 573.992 268.306 576.437 266.855C578.965 265.32 580.902 263.87 582.254 262.505V229.493H547.614V202.111H620.178ZM729.402 266.344V161.038H765.811V299.484H731.551L729.402 266.344ZM733.447 237.938L744.194 237.682C744.194 246.895 743.141 255.468 741.033 263.401C738.928 271.249 735.767 278.073 731.551 283.873C727.338 289.588 722.029 294.067 715.623 297.308C709.218 300.464 701.676 302.043 692.994 302.043C686.337 302.043 680.184 301.104 674.538 299.228C668.977 297.266 664.172 294.237 660.127 290.143C656.166 285.963 653.046 280.632 650.769 274.149C648.58 267.581 647.484 259.69 647.484 250.477V161.038H683.892V250.733C683.892 254.828 684.356 258.283 685.284 261.098C686.293 263.913 687.685 266.216 689.454 268.007C691.226 269.798 693.29 271.078 695.651 271.846C698.095 272.613 700.792 272.997 703.741 272.997C711.242 272.997 717.14 271.462 721.44 268.391C725.822 265.32 728.898 261.14 730.667 255.851C732.523 250.477 733.447 244.506 733.447 237.938ZM832.053 161.038V299.484H795.521V161.038H832.053ZM793.244 124.955C793.244 119.581 795.097 115.145 798.806 111.648C802.515 108.151 807.488 106.402 813.725 106.402C819.878 106.402 824.807 108.151 828.516 111.648C832.309 115.145 834.205 119.581 834.205 124.955C834.205 130.329 832.309 134.765 828.516 138.263C824.807 141.76 819.878 143.509 813.725 143.509C807.488 143.509 802.515 141.76 798.806 138.263C795.097 134.765 793.244 130.329 793.244 124.955ZM897.792 190.595V299.484H861.384V161.038H895.519L897.792 190.595ZM892.482 225.399H882.624C882.624 215.162 883.928 205.95 886.541 197.761C889.154 189.486 892.819 182.449 897.539 176.648C902.26 170.763 907.865 166.284 914.355 163.213C920.928 160.057 928.258 158.479 936.352 158.479C942.757 158.479 948.614 159.417 953.924 161.294C959.233 163.171 963.782 166.156 967.575 170.251C971.452 174.345 974.401 179.762 976.425 186.501C978.533 193.24 979.585 201.471 979.585 211.196V299.484H942.925V211.068C942.925 204.926 942.081 200.149 940.397 196.737C938.709 193.325 936.224 190.937 932.935 189.572C929.734 188.122 925.774 187.397 921.053 187.397C916.164 187.397 911.91 188.377 908.286 190.339C904.745 192.301 901.796 195.031 899.436 198.528C897.159 201.941 895.431 205.95 894.254 210.556C893.074 215.162 892.482 220.11 892.482 225.399ZM1063.78 273.253C1068.25 273.253 1072.21 272.4 1075.66 270.694C1079.12 268.903 1081.82 266.429 1083.75 263.273C1085.78 260.031 1086.83 256.235 1086.91 251.885H1121.17C1121.09 261.609 1118.52 270.268 1113.46 277.859C1108.41 285.366 1101.62 291.295 1093.11 295.645C1084.6 299.91 1075.07 302.043 1064.54 302.043C1053.92 302.043 1044.65 300.251 1036.73 296.669C1028.89 293.086 1022.36 288.138 1017.13 281.826C1011.9 275.428 1007.99 268.007 1005.38 259.562C1002.76 251.032 1001.45 241.905 1001.45 232.18V228.469C1001.45 218.66 1002.76 209.532 1005.38 201.087C1007.99 192.557 1011.9 185.136 1017.13 178.824C1022.36 172.426 1028.89 167.436 1036.73 163.853C1044.56 160.271 1053.75 158.479 1064.28 158.479C1075.49 158.479 1085.31 160.654 1093.74 165.005C1102.25 169.355 1108.91 175.582 1113.72 183.686C1118.6 191.704 1121.09 201.215 1121.17 212.219H1086.91C1086.83 207.613 1085.86 203.433 1084.01 199.68C1082.24 195.927 1079.62 192.941 1076.17 190.723C1072.8 188.42 1068.63 187.269 1063.65 187.269C1058.34 187.269 1054 188.42 1050.63 190.723C1047.26 192.941 1044.65 196.012 1042.8 199.936C1040.94 203.775 1039.63 208.168 1038.87 213.115C1038.2 217.977 1037.86 223.095 1037.86 228.469V232.18C1037.86 237.554 1038.2 242.715 1038.87 247.662C1039.55 252.61 1040.81 257.003 1042.67 260.842C1044.61 264.68 1047.26 267.708 1050.63 269.926C1054 272.144 1058.39 273.253 1063.78 273.253ZM1177.81 102.947V299.484H1141.4V102.947H1177.81ZM1172.63 225.399H1162.64C1162.72 215.759 1163.99 206.888 1166.43 198.784C1168.88 190.595 1172.37 183.515 1176.92 177.544C1181.47 171.488 1186.91 166.796 1193.23 163.469C1199.64 160.143 1206.72 158.479 1214.47 158.479C1221.21 158.479 1227.32 159.46 1232.8 161.422C1238.36 163.299 1243.13 166.369 1247.09 170.635C1251.13 174.815 1254.25 180.316 1256.44 187.141C1258.63 193.965 1259.73 202.239 1259.73 211.963V299.484H1223.07V211.708C1223.07 205.566 1222.18 200.746 1220.41 197.249C1218.73 193.666 1216.24 191.15 1212.95 189.7C1209.75 188.164 1205.79 187.397 1201.07 187.397C1195.85 187.397 1191.38 188.377 1187.67 190.339C1184.05 192.301 1181.14 195.031 1178.95 198.528C1176.76 201.941 1175.16 205.95 1174.14 210.556C1173.13 215.162 1172.63 220.11 1172.63 225.399ZM1364.53 145.044L1314.47 299.484H1274.14L1342.53 113.183H1368.2L1364.53 145.044ZM1406.12 299.484L1355.93 145.044L1351.89 113.183H1377.8L1446.58 299.484H1406.12ZM1403.85 230.133V260.202H1306.63V230.133H1403.85ZM1493.73 187.652V352.713H1457.32V161.038H1491.07L1493.73 187.652ZM1580.33 228.725V231.412C1580.33 241.478 1579.15 250.819 1576.79 259.434C1574.51 268.05 1571.14 275.556 1566.67 281.954C1562.21 288.266 1556.64 293.214 1549.99 296.796C1543.41 300.294 1535.83 302.043 1527.23 302.043C1518.89 302.043 1511.64 300.337 1505.49 296.924C1499.33 293.512 1494.15 288.736 1489.94 282.594C1485.81 276.367 1482.48 269.159 1479.95 260.97C1477.42 252.781 1475.48 243.994 1474.13 234.611V227.574C1475.48 217.508 1477.42 208.295 1479.95 199.936C1482.48 191.491 1485.81 184.198 1489.94 178.056C1494.15 171.829 1499.29 167.009 1505.36 163.597C1511.51 160.185 1518.72 158.479 1526.98 158.479C1535.66 158.479 1543.29 160.143 1549.86 163.469C1556.52 166.796 1562.08 171.573 1566.55 177.8C1571.1 184.027 1574.51 191.448 1576.79 200.064C1579.15 208.679 1580.33 218.233 1580.33 228.725ZM1543.79 231.412V228.725C1543.79 222.84 1543.29 217.423 1542.27 212.475C1541.35 207.443 1539.83 203.049 1537.72 199.296C1535.7 195.543 1533 192.643 1529.63 190.595C1526.35 188.463 1522.34 187.397 1517.62 187.397C1512.65 187.397 1508.39 188.207 1504.85 189.828C1501.4 191.448 1498.58 193.794 1496.38 196.865C1494.19 199.936 1492.55 203.604 1491.45 207.869C1490.36 212.134 1489.69 216.954 1489.43 222.328V240.113C1489.85 246.426 1491.03 252.098 1492.97 257.131C1494.91 262.079 1497.9 266.002 1501.94 268.903C1505.99 271.803 1511.3 273.253 1517.88 273.253C1522.68 273.253 1526.73 272.187 1530.01 270.054C1533.3 267.836 1535.95 264.808 1537.98 260.97C1540.08 257.131 1541.56 252.695 1542.4 247.662C1543.33 242.63 1543.79 237.213 1543.79 231.412ZM1639.36 187.652V352.713H1602.95V161.038H1636.71L1639.36 187.652ZM1725.96 228.725V231.412C1725.96 241.478 1724.78 250.819 1722.42 259.434C1720.14 268.05 1716.77 275.556 1712.31 281.954C1707.84 288.266 1702.28 293.214 1695.62 296.796C1689.05 300.294 1681.46 302.043 1672.87 302.043C1664.52 302.043 1657.27 300.337 1651.12 296.924C1644.97 293.512 1639.78 288.736 1635.57 282.594C1631.44 276.367 1628.11 269.159 1625.58 260.97C1623.06 252.781 1621.12 243.994 1619.77 234.611V227.574C1621.12 217.508 1623.06 208.295 1625.58 199.936C1628.11 191.491 1631.44 184.198 1635.57 178.056C1639.78 171.829 1644.92 167.009 1650.99 163.597C1657.15 160.185 1664.35 158.479 1672.61 158.479C1681.29 158.479 1688.92 160.143 1695.49 163.469C1702.15 166.796 1707.71 171.573 1712.18 177.8C1716.73 184.027 1720.14 191.448 1722.42 200.064C1724.78 208.679 1725.96 218.233 1725.96 228.725ZM1689.43 231.412V228.725C1689.43 222.84 1688.92 217.423 1687.91 212.475C1686.98 207.443 1685.46 203.049 1683.36 199.296C1681.34 195.543 1678.64 192.643 1675.27 190.595C1671.98 188.463 1667.98 187.397 1663.26 187.397C1658.28 187.397 1654.03 188.207 1650.49 189.828C1647.03 191.448 1644.21 193.794 1642.02 196.865C1639.83 199.936 1638.18 203.604 1637.09 207.869C1635.99 212.134 1635.32 216.954 1635.07 222.328V240.113C1635.49 246.426 1636.67 252.098 1638.61 257.131C1640.54 262.079 1643.54 266.002 1647.58 268.903C1651.63 271.803 1656.93 273.253 1663.51 273.253C1668.31 273.253 1672.36 272.187 1675.65 270.054C1678.93 267.836 1681.59 264.808 1683.61 260.97C1685.72 257.131 1687.19 252.695 1688.03 247.662C1688.96 242.63 1689.43 237.213 1689.43 231.412Z" fill="white"/>
</g>
</g>
<defs>
<clipPath id="clip0_320_5">
<rect width="1735" height="422" fill="white"/>
</clipPath>
</defs>
</svg>
