<svg width="687" height="672" viewBox="0 0 687 672" fill="none" xmlns="http://www.w3.org/2000/svg">
<g clip-path="url(#clip0_320_46)">
<mask id="mask0_320_46" style="mask-type:luminance" maskUnits="userSpaceOnUse" x="0" y="0" width="687" height="672">
<path d="M686.467 0H0V671.543H686.467V0Z" fill="white"/>
</mask>
<g mask="url(#mask0_320_46)">
<path d="M686.467 0H0V671.543H686.467V0Z" fill="#1E1B1B"/>
<path d="M120.05 131.798H2.54688V514.641H120.05V131.798Z" fill="white"/>
<path d="M686.467 163.179H568.963V546.021H686.467V163.179Z" fill="white"/>
<path d="M163.341 6.10352e-05V119.246L577.695 119.246V6.10352e-05L163.341 6.10352e-05Z" fill="white"/>
<path d="M67.3069 29.8466L-98.9502 166.581L-29.9553 252.98L136.302 116.245L67.3069 29.8466Z" fill="#1E1B1B"/>
<path d="M727.438 414.223L519.488 585.247L588.483 671.646L796.433 500.622L727.438 414.223Z" fill="#1E1B1B"/>
<path d="M662.317 62.3073L479.709 -87.8655L410.717 -1.46489L593.324 148.708L662.317 62.3073Z" fill="#1E1B1B"/>
<path d="M417.831 268.634H274.003V414.595H417.831V268.634Z" fill="white"/>
<path d="M568.963 559.893L570.265 679.131L687.761 677.81L686.459 558.572L568.963 559.893Z" fill="white"/>
<path d="M2.547 1.32086L3.84863 120.56L121.345 119.239L120.043 -7.40677e-05L2.547 1.32086Z" fill="white"/>
<path d="M686.467 0H568.963V119.246H686.467V0Z" fill="white"/>
<path d="M113.866 558.574L113.866 677.82H528.22V558.574H113.866Z" fill="white"/>
<path d="M292.943 689.362L121.803 548.62L52.8107 635.021L223.95 775.763L292.943 689.362Z" fill="#1E1B1B"/>
<path d="M2.547 559.893L3.84863 679.131L121.345 677.81L120.043 558.572L2.547 559.893Z" fill="white"/>
</g>
</g>
<defs>
<clipPath id="clip0_320_46">
<rect width="686.467" height="671.543" fill="white"/>
</clipPath>
</defs>
</svg>
