<svg width="701" height="672" viewBox="0 0 701 672" fill="none" xmlns="http://www.w3.org/2000/svg">
<g clip-path="url(#clip0_320_27)">
<mask id="mask0_320_27" style="mask-type:luminance" maskUnits="userSpaceOnUse" x="0" y="0" width="701" height="672">
<path d="M701 0H0V672H701V0Z" fill="white"/>
</mask>
<g mask="url(#mask0_320_27)">
<path d="M701 0H0V672H701V0Z" fill="white"/>
<path d="M122.592 131.888H2.60107V514.991H122.592V131.888Z" fill="#272727"/>
<path d="M701 163.29H581.009V546.392H701V163.29Z" fill="#272727"/>
<path d="M166.8 3.8147e-05V119.327L589.926 119.327V3.8147e-05L166.8 3.8147e-05Z" fill="#272727"/>
<path d="M68.732 29.8669L-101.045 166.694L-30.5893 253.152L139.188 116.324L68.732 29.8669Z" fill="white"/>
<path d="M742.839 414.505L530.487 585.645L600.942 672.102L813.295 500.962L742.839 414.505Z" fill="white"/>
<path d="M676.339 62.3496L489.866 -87.9253L419.413 -1.46597L605.886 148.809L676.339 62.3496Z" fill="white"/>
<path d="M426.677 268.817H279.805V414.877H426.677V268.817Z" fill="#272727"/>
<path d="M581.009 560.273L582.338 679.593L702.322 678.271L700.992 558.951L581.009 560.273Z" fill="#272727"/>
<path d="M2.60099 1.32181L3.93018 120.642L123.914 119.32L122.585 -1.96847e-05L2.60099 1.32181Z" fill="#272727"/>
<path d="M701 0H581.009V119.327H701V0Z" fill="#272727"/>
<path d="M116.277 558.953L116.277 678.28H539.403V558.953H116.277Z" fill="#272727"/>
<path d="M299.145 689.831L124.382 548.993L53.9292 635.452L228.692 776.29L299.145 689.831Z" fill="white"/>
<path d="M2.60099 560.273L3.93018 679.593L123.914 678.271L122.585 558.951L2.60099 560.273Z" fill="#272727"/>
</g>
</g>
<defs>
<clipPath id="clip0_320_27">
<rect width="701" height="672" fill="white"/>
</clipPath>
</defs>
</svg>
